<svg width="505" height="330" viewBox="0 0 505 330" fill="none" xmlns="http://www.w3.org/2000/svg">
<rect width="505" height="330" fill="white"/>
<path d="M221.768 107.119C204.914 88.9187 231.258 69.4083 250.114 86.8133C250.992 87.6242 252.389 87.5854 253.23 86.7353C271.117 68.6524 299.251 90.9438 280.868 107.119L252.455 130.092C251.985 130.472 251.712 131.043 251.712 131.647V145.253M251.712 145.253L155.505 169.829C154.62 170.055 154 170.852 154 171.766V180C154 181.105 154.895 182 156 182H349C350.105 182 351 181.105 351 180V173.138C351 172.231 350.39 171.438 349.513 171.205L301.356 158.426L251.712 145.253Z" stroke="url(#paint0_linear_1808_6)" stroke-width="10"/>
<path d="M186.576 234.439C190.927 234.439 194.354 232.022 195.805 227.936L190.927 226.09C190.355 228.155 188.686 229.583 186.532 229.583C182.797 229.583 181.391 226.397 181.391 223.058C181.391 219.784 182.841 216.444 186.532 216.444C188.729 216.444 190.355 217.938 190.927 220.047L196.024 218.07C194.354 213.697 190.883 211.588 186.532 211.588C179.369 211.588 175.941 217.301 175.941 223.058C175.941 228.88 179.413 234.439 186.576 234.439ZM207.956 211.588C203.627 211.588 200.836 213.521 198.727 216.4L202.836 219.366C203.781 217.762 205.473 216.268 208 216.268C211.493 216.268 212.46 217.652 212.57 220.904H206.615C201.693 220.904 197.87 222.486 197.87 227.254C197.87 231.847 201.342 234.439 205.846 234.439C208.351 234.439 211.273 233.341 212.702 231.078L213.031 234H217.448V220.685C217.448 215.323 213.932 211.588 207.956 211.588ZM206.923 229.913C204.528 229.913 203.363 228.88 203.363 227.43C203.363 226.046 204.484 224.771 206.923 224.771H212.592V224.947C212.262 227.54 210.219 229.913 206.923 229.913ZM223.227 243.097H228.764V231.803C230.302 233.692 232.587 234.439 234.938 234.439C241.112 234.439 244.43 229.144 244.43 223.014C244.43 216.949 241.112 211.588 235.026 211.588C232.741 211.588 230.302 212.357 228.764 214.247V212.049H223.227V243.097ZM233.686 229.583C229.994 229.583 228.28 226.705 228.28 223.014C228.28 219.322 229.994 216.532 233.686 216.532C237.377 216.532 239.025 219.366 239.025 223.014C239.025 226.661 237.377 229.583 233.686 229.583ZM255.636 234.439C259.789 234.439 264.206 232.198 264.206 227.123C264.206 219.059 253.043 221.036 253.043 217.718C253.043 216.686 254.12 215.829 255.878 215.829C258.251 215.829 259.481 217.257 260.229 218.619L264.381 216.356C262.711 213.39 259.833 211.588 256.054 211.588C251.813 211.588 247.902 213.785 247.902 218.421C247.902 226.178 258.932 223.695 258.932 227.386C258.932 228.551 257.855 230.001 255.373 230.001C252.45 230.001 251.286 227.979 250.692 226.397L246.43 228.287C247.506 231.671 251.022 234.439 255.636 234.439ZM276.181 234.439C278.356 234.439 280.905 233.604 282.663 231.429V234H287.98V212.049H282.663V224.046C282.663 227.87 280.729 229.496 277.719 229.496C274.972 229.496 273.522 227.43 273.522 224.552V212.049H268.227V225.233C268.227 229.825 270.424 234.439 276.181 234.439ZM298.834 234.439C300.109 234.439 301.713 234.22 302.833 234V229.496C302.262 229.583 301.669 229.627 301.361 229.627C300.285 229.627 299.604 229.188 299.604 228.155V202.953H294.242V229.627C294.242 233.495 296.308 234.439 298.834 234.439ZM316.171 234.439C319.862 234.439 322.785 233.143 325.18 230.484L321.488 227.254C319.95 228.968 318.192 229.583 316.215 229.583C312.765 229.583 311.183 227.65 310.722 224.771H325.795C325.905 224.464 325.993 223.563 325.993 222.662C325.993 217.762 323.51 211.588 315.819 211.588C308.393 211.588 305.053 217.389 305.053 223.102C305.053 229.012 308.612 234.439 316.171 234.439ZM310.722 220.904C311.227 218.158 312.611 216.092 315.775 216.092C318.104 216.092 319.994 217.257 320.543 219.52C320.675 219.959 320.719 220.421 320.719 220.904H310.722Z" fill="url(#paint1_linear_1808_6)"/>
<defs>
<linearGradient id="paint0_linear_1808_6" x1="252.5" y1="80" x2="94" y2="174" gradientUnits="userSpaceOnUse">
<stop stop-color="#C0D9B4"/>
<stop offset="1" stop-color="#528285"/>
</linearGradient>
<linearGradient id="paint1_linear_1808_6" x1="322" y1="218" x2="93.5" y2="188" gradientUnits="userSpaceOnUse">
<stop stop-color="#C0D9B4"/>
<stop offset="1" stop-color="#528285"/>
</linearGradient>
</defs>
</svg>
