<svg width="306" height="340" viewBox="0 0 306 340" fill="none" xmlns="http://www.w3.org/2000/svg">
<path fill-rule="evenodd" clip-rule="evenodd" d="M92.6997 12.3753L111.437 6.42376C138.403 -2.14125 167.36 -2.14125 194.325 6.42376L213.063 12.3753L211.195 24.59L223.243 32.7468C247.928 49.4586 265.881 74.232 274.148 102.659C284.427 111.19 290.819 123.947 290.819 137.995V155.358L199.678 181.278L199.611 181.297C199.61 181.297 199.61 181.297 199.61 181.297C193.877 182.889 187.531 183.974 180.813 183.974H124.719C118.001 183.974 111.654 182.889 105.921 181.297L105.845 181.275L14.9434 155.344V137.995C14.9434 123.76 21.4052 111.096 31.6117 102.597C39.8964 74.1929 57.8495 49.4443 82.5208 32.7455L94.5676 24.5916L92.6997 12.3753ZM105.548 20.355L112.324 64.6695L101.172 34.0018L88.9639 42.2648C86.0058 44.267 83.1536 46.3966 80.4135 48.6444C73.8517 54.0275 67.9341 60.0877 62.7451 66.6995C53.7899 78.1101 47.005 91.1632 42.8244 105.213C42.4127 106.596 42.0264 107.989 41.6656 109.391C32.3844 115.742 26.4382 126.163 26.4382 137.995V146.669L108.96 170.21L108.998 170.221C113.934 171.592 119.233 172.48 124.719 172.48H180.813C186.299 172.48 191.599 171.592 196.534 170.221L196.568 170.212L279.324 146.677V137.995C279.324 127.682 274.718 118.258 267.198 111.833C266.212 110.99 265.176 110.199 264.093 109.465C258.19 86.4246 245.354 65.8194 227.423 50.3891C224.057 47.4926 220.512 44.7787 216.799 42.2655L204.591 34.0003L193.438 64.6695L200.214 20.355L190.845 17.3792C166.144 9.53335 139.618 9.53335 114.917 17.3792L105.548 20.355ZM187.366 28.3347C164.928 21.2079 140.834 21.2079 118.397 28.3347L128.397 93.7402C128.81 96.4614 130.186 98.9442 132.274 100.737C134.357 102.526 137.012 103.51 139.757 103.511H139.772L139.777 103.511L139.779 103.511L139.791 103.511L139.792 103.511L139.798 103.511L165.87 103.511C171.618 103.511 176.56 99.3726 177.365 93.7402L187.366 28.3347ZM165.87 115.006L139.792 115.006L139.784 115.006L139.777 115.006H139.774L139.772 115.006H139.752M139.777 126.5L139.772 126.5H126.443C116.915 126.5 108.111 120.605 104.815 111.293L90.0741 70.7544C76.404 83.6856 66.8879 100.556 62.9768 119.204L61.7957 124.836L56.5799 127.265C54.9632 128.018 53.596 129.02 52.5039 130.198L115.188 148.08C118.515 149.002 121.709 149.49 124.719 149.49H180.813C183.824 149.49 187.02 149.001 190.349 148.079C190.36 148.076 190.37 148.073 190.381 148.07L253.206 130.203C252.142 129.074 250.829 128.125 249.3 127.434L243.973 125.026L242.782 119.302C238.893 100.618 229.376 83.7113 215.687 70.7569L200.946 111.294C197.65 120.605 188.847 126.5 179.319 126.5L139.8 126.5L139.797 126.5L139.792 126.5L139.791 126.5L139.777 126.5ZM190.124 107.419L210.355 51.7841C213.662 54.0227 216.821 56.4377 219.822 59.0135C219.857 59.043 219.891 59.0726 219.925 59.1021C236.078 73.0018 247.641 91.5634 252.958 112.318C252.961 112.329 252.964 112.341 252.967 112.352C253.357 113.877 253.713 115.413 254.035 116.96C255.243 117.505 256.388 118.141 257.464 118.858C257.522 118.896 257.581 118.936 257.639 118.975C263.498 122.949 267.27 129.314 267.772 136.38C267.81 136.914 267.829 137.453 267.829 137.995L193.493 159.136L193.459 159.145L193.458 159.146C189.32 160.295 185.067 160.985 180.813 160.985H124.719C120.466 160.985 116.213 160.295 112.075 159.146L37.933 137.995C37.933 132.793 39.6622 127.958 42.6834 124.033C44.2004 122.062 46.043 120.32 48.1561 118.876C48.2348 118.822 48.3139 118.769 48.3934 118.716C49.4419 118.017 50.5552 117.39 51.7268 116.845C52.05 115.304 52.4072 113.774 52.7979 112.255C57.5499 93.7853 67.246 77.0568 80.7187 63.8083C82.3686 62.1857 84.0752 60.6154 85.8363 59.1005C88.8687 56.4921 92.0625 54.0478 95.407 51.7841L115.638 107.419C117.247 112.017 121.615 115.006 126.443 115.006H139.752M165.87 115.006L179.319 115.006C184.147 115.006 188.515 112.017 190.124 107.419M139.762 92.0159L139.777 92.0159H165.87C165.922 92.0159 165.957 92.0074 165.983 91.9978C165.991 91.995 165.998 91.9919 166.004 91.9888L174.446 36.7804C160.233 33.7191 145.529 33.7191 131.316 36.7804L139.762 92.0159Z" fill="#FF7222"/>
<path fill-rule="evenodd" clip-rule="evenodd" d="M233.277 141.837C235.524 140.795 237.889 140.059 240.339 139.67C241.671 139.459 243.027 139.35 244.404 139.35C262.218 139.35 293.555 142.068 293.555 164.547C293.555 187.027 262.218 220.756 244.404 220.756C244.257 220.756 244.109 220.755 243.962 220.752C242.7 223.39 241.294 225.987 239.752 228.532C247.321 237.956 251.619 248.752 251.619 260.226C251.619 297.011 207.441 326.831 152.945 326.831C98.4485 326.831 54.2707 297.011 54.2707 260.226C54.2707 248.752 58.5686 237.956 66.1369 228.532C64.5952 225.987 63.1891 223.39 61.9275 220.752C61.7802 220.755 61.6328 220.756 61.4851 220.756C43.671 220.756 12.3342 187.027 12.3342 164.547C12.3342 142.068 43.671 139.35 61.4851 139.35C63.1619 139.35 64.8088 139.512 66.4167 139.823C67.9842 140.126 69.5146 140.572 70.9992 141.15C72.601 141.773 74.1496 142.549 75.6341 143.465C76.6471 142.6 77.6909 141.757 78.7645 140.937C78.7416 140.103 78.7475 139.244 78.781 138.365C78.8641 136.182 79.1175 133.872 79.5248 131.497C81.9645 117.268 89.9237 100.688 99.8457 94.9596C115.113 86.1451 129.246 106.362 136.231 118.461C136.587 119.078 136.908 119.707 137.194 120.348C142.323 119.862 147.584 119.615 152.945 119.615C158.596 119.615 164.136 119.889 169.527 120.429C169.822 119.76 170.154 119.104 170.525 118.461C177.511 106.362 191.644 86.1451 206.911 94.9596C216.739 100.634 224.641 116.955 227.161 131.092C227.705 134.146 227.998 137.098 228.006 139.819C228.007 140.421 227.995 141.012 227.968 141.591C228.747 142.203 229.509 142.828 230.255 143.465C231.236 142.86 232.244 142.316 233.277 141.837ZM239.015 127.397C240.777 127.146 242.575 127.016 244.404 127.016C253.598 127.016 267.605 127.67 279.701 131.866C285.817 133.986 292.301 137.298 297.361 142.672C302.69 148.332 305.889 155.725 305.889 164.547C305.889 172.829 303.075 181.129 299.374 188.405C295.602 195.822 290.48 203.017 284.851 209.307C279.232 215.586 272.825 221.279 266.289 225.498C263.202 227.49 259.754 229.37 256.096 230.761C261.08 239.699 263.953 249.637 263.953 260.226C263.953 283.954 249.7 303.991 229.618 317.546C209.464 331.15 182.319 339.165 152.945 339.165C123.57 339.165 96.4251 331.15 76.2709 317.546C56.1895 303.991 41.9364 283.954 41.9364 260.226C41.9364 249.637 44.8093 239.699 49.7931 230.761C46.1355 229.37 42.6874 227.49 39.6008 225.498C33.0645 221.279 26.6573 215.586 21.0382 209.307C15.4092 203.017 10.2873 195.822 6.51504 188.405C2.81412 181.129 0 172.829 0 164.547C0 155.725 3.19962 148.332 8.52866 142.672C13.5882 137.298 20.0727 133.986 26.1878 131.866C38.2842 127.67 52.2917 127.016 61.4851 127.016C63.6064 127.016 65.6867 127.191 67.7161 127.526C68.9009 121.529 70.8328 115.471 73.2493 109.929C77.4242 100.354 84.1534 89.7772 93.6786 84.2779C100.269 80.4729 107.241 79.6544 113.822 81.207C120.02 82.6693 125.19 86.0574 129.215 89.541C135.331 94.8335 140.365 101.73 144.016 107.497C146.965 107.353 149.943 107.281 152.945 107.281C156.232 107.281 159.49 107.368 162.713 107.54C166.367 101.764 171.41 94.8466 177.541 89.541C181.567 86.0574 186.737 82.6693 192.935 81.207C199.516 79.6544 206.488 80.4729 213.078 84.2779C222.729 89.8497 229.521 100.641 233.697 110.368C236 115.732 237.856 121.585 239.015 127.397Z" fill="#FF7222"/>
<path d="M93.74 180.051C93.74 202.53 79.2989 220.754 61.4848 220.754C43.6707 220.754 12.334 187.024 12.334 164.545C12.334 142.065 43.6707 139.348 61.4848 139.348C79.2989 139.348 93.74 157.571 93.74 180.051Z" fill="#CE4A12"/>
<path fill-rule="evenodd" clip-rule="evenodd" d="M61.4848 205.953C68.0995 205.953 78.9389 197.751 78.9389 180.051C78.9389 162.35 68.0995 154.149 61.4848 154.149C52.9213 154.149 42.6974 154.858 35.079 157.5C31.3501 158.794 29.2891 160.204 28.2851 161.27C27.6043 161.993 27.1351 162.768 27.1351 164.545C27.1351 166.971 28.0669 170.921 30.7014 176.101C33.2503 181.112 36.9463 186.39 41.2585 191.209C45.5826 196.041 50.1858 200.03 54.3166 202.697C56.3696 204.022 58.1139 204.896 59.4815 205.412C60.7916 205.906 61.4293 205.949 61.4827 205.952C61.4867 205.953 61.4874 205.953 61.4848 205.953ZM61.4848 220.754C79.2989 220.754 93.74 202.53 93.74 180.051C93.74 157.571 79.2989 139.348 61.4848 139.348C43.6707 139.348 12.334 142.065 12.334 164.545C12.334 187.024 43.6707 220.754 61.4848 220.754Z" fill="black"/>
<path d="M212.149 180.051C212.149 202.53 226.59 220.754 244.404 220.754C262.218 220.754 293.555 187.024 293.555 164.545C293.555 142.065 262.218 139.348 244.404 139.348C226.59 139.348 212.149 157.571 212.149 180.051Z" fill="#CE4A12"/>
<path fill-rule="evenodd" clip-rule="evenodd" d="M244.404 205.953C237.789 205.953 226.95 197.751 226.95 180.051C226.95 162.35 237.789 154.149 244.404 154.149C252.967 154.149 263.191 154.858 270.81 157.5C274.539 158.794 276.6 160.204 277.604 161.27C278.284 161.993 278.754 162.768 278.754 164.545C278.754 166.971 277.822 170.921 275.187 176.101C272.638 181.112 268.942 186.39 264.63 191.209C260.306 196.041 255.703 200.03 251.572 202.697C249.519 204.022 247.775 204.896 246.407 205.412C245.097 205.906 244.459 205.949 244.406 205.952C244.402 205.953 244.401 205.953 244.404 205.953ZM244.404 220.754C226.59 220.754 212.149 202.53 212.149 180.051C212.149 157.571 226.59 139.348 244.404 139.348C262.218 139.348 293.555 142.065 293.555 164.545C293.555 187.024 262.218 220.754 244.404 220.754Z" fill="black"/>
<path d="M185.522 156.33C200.79 165.144 218.829 162.482 225.814 150.383C232.799 138.285 222.179 103.777 206.912 94.9621C191.644 86.1476 177.511 106.365 170.526 118.463C163.541 130.562 170.255 147.515 185.522 156.33Z" fill="#CE4A12"/>
<path fill-rule="evenodd" clip-rule="evenodd" d="M212.901 143.136C211.294 145.567 203.82 149.803 192.923 143.512C181.794 137.087 181.959 128.263 183.344 125.864C186.665 120.112 190.939 113.835 195.299 110.062C197.414 108.231 198.726 107.724 199.166 107.62C199.173 107.618 199.179 107.617 199.184 107.616C199.252 107.643 199.36 107.693 199.511 107.78C200.562 108.387 202.547 110.121 204.881 113.709C207.112 117.139 209.135 121.461 210.645 126.058C212.159 130.672 212.997 135.079 213.171 138.593C213.33 141.782 212.892 143.073 212.901 143.136ZM199.097 107.586C199.097 107.586 199.103 107.588 199.114 107.59C199.102 107.586 199.097 107.585 199.097 107.586ZM225.814 150.383C218.829 162.482 200.79 165.144 185.522 156.33C170.255 147.515 163.541 130.562 170.526 118.463C177.511 106.365 191.644 86.1476 206.912 94.9621C222.179 103.777 232.799 138.285 225.814 150.383Z" fill="black"/>
<path d="M121.234 156.33C105.966 165.144 87.9272 162.482 80.9421 150.383C73.957 138.285 84.577 103.777 99.8442 94.9621C115.111 86.1476 129.245 106.365 136.23 118.463C143.215 130.562 136.501 147.515 121.234 156.33Z" fill="#CE4A12"/>
<path fill-rule="evenodd" clip-rule="evenodd" d="M93.8548 143.136C95.462 145.567 102.936 149.803 113.833 143.512C124.961 137.087 124.797 128.263 123.412 125.864C120.091 120.112 115.817 113.835 111.457 110.062C109.342 108.231 108.03 107.724 107.589 107.62C107.583 107.618 107.577 107.617 107.571 107.616C107.504 107.643 107.396 107.693 107.245 107.78C106.194 108.387 104.209 110.121 101.875 113.709C99.6442 117.139 97.6204 121.461 96.1112 126.058C94.5965 130.672 93.7591 135.079 93.5846 138.593C93.4263 141.782 93.8636 143.073 93.8548 143.136ZM107.659 107.586C107.659 107.586 107.653 107.588 107.642 107.59C107.654 107.586 107.659 107.585 107.659 107.586ZM80.9421 150.383C87.9272 162.482 105.966 165.144 121.234 156.33C136.501 147.515 143.215 130.562 136.23 118.463C129.245 106.365 115.111 86.1476 99.8442 94.9621C84.577 103.777 73.957 138.285 80.9421 150.383Z" fill="black"/>
<path d="M54.2712 188.686C54.2713 145.089 98.4491 119.614 152.945 119.614C207.441 119.614 251.619 145.089 251.619 188.686C251.619 232.283 207.441 277.492 152.945 277.492C98.4491 277.492 54.2712 232.283 54.2712 188.686Z" fill="#FF7222"/>
<path fill-rule="evenodd" clip-rule="evenodd" d="M91.3412 150.144C76.9096 159.695 69.0723 172.655 69.0723 188.686C69.0723 205.572 77.7667 224.072 93.299 238.643C108.698 253.09 129.835 262.691 152.945 262.691C176.056 262.691 197.192 253.09 212.591 238.643C228.124 224.072 236.818 205.572 236.818 188.686C236.818 172.655 228.981 159.695 214.549 150.144C199.726 140.333 178.119 134.415 152.945 134.415C127.771 134.415 106.164 140.333 91.3412 150.144ZM152.945 119.614C98.4491 119.614 54.2713 145.089 54.2712 188.686C54.2712 232.283 98.4491 277.492 152.945 277.492C207.441 277.492 251.619 232.283 251.619 188.686C251.619 145.089 207.441 119.614 152.945 119.614Z" fill="black"/>
<path d="M171.97 159.298C182.824 159.332 216.258 169.844 189.831 131.028C165.431 122.599 152.018 123.969 128.323 130.834L128.275 146.086C128.242 156.645 128.606 168.379 143.481 168.426C158.355 168.473 161.115 159.264 171.97 159.298Z" fill="black"/>
<circle cx="113.475" cy="181.287" r="12.3342" fill="black"/>
<circle cx="192.412" cy="181.287" r="12.3342" fill="black"/>
<path d="M251.617 260.226C251.617 297.011 207.44 326.831 152.943 326.831C98.4474 326.831 54.2695 297.011 54.2695 260.226C54.2695 223.441 98.4474 193.621 152.943 193.621C207.44 193.621 251.617 223.441 251.617 260.226Z" fill="#FF7222"/>
<path fill-rule="evenodd" clip-rule="evenodd" d="M214.436 295.055C229.622 284.804 236.816 272.216 236.816 260.226C236.816 248.236 229.622 235.648 214.436 225.397C199.336 215.205 177.64 208.422 152.943 208.422C128.247 208.422 106.55 215.205 91.4513 225.397C76.2648 235.648 69.0706 248.236 69.0706 260.226C69.0706 272.216 76.2648 284.804 91.4513 295.055C106.55 305.247 128.247 312.03 152.943 312.03C177.64 312.03 199.336 305.247 214.436 295.055ZM152.943 326.831C207.44 326.831 251.617 297.011 251.617 260.226C251.617 223.441 207.44 193.621 152.943 193.621C98.4474 193.621 54.2695 223.441 54.2695 260.226C54.2695 297.011 98.4474 326.831 152.943 326.831Z" fill="black"/>
<ellipse cx="120.875" cy="260.223" rx="7.40055" ry="14.8011" fill="black"/>
<ellipse cx="185.01" cy="260.223" rx="7.40055" ry="14.8011" fill="black"/>
<path d="M128.398 93.7388L118.397 28.3333C140.835 21.2066 164.929 21.2066 187.366 28.3333L177.366 93.7388C176.561 99.3713 171.618 103.509 165.871 103.509H139.778C137.025 103.513 134.363 102.529 132.275 100.736C130.186 98.9429 128.811 96.4601 128.398 93.7388ZM267.83 137.994C267.83 128.913 262.427 120.752 254.036 116.958C248.504 90.3801 232.836 67.0021 210.356 51.7827L190.125 107.418C188.516 112.016 184.148 115.004 179.32 115.004H126.444C121.616 115.004 117.248 112.016 115.639 107.418L95.4077 51.7827C72.956 66.9792 57.2924 90.3097 51.7274 116.843C43.3362 120.752 37.9336 128.798 37.9336 137.994L112.075 159.144C116.213 160.294 120.466 160.983 124.719 160.983H180.814C185.067 160.983 189.32 160.294 193.458 159.144L267.83 137.994Z" fill="#CE4A12"/>
<path fill-rule="evenodd" clip-rule="evenodd" d="M105.548 20.3563L114.916 17.3805C139.618 9.53463 166.143 9.53463 190.845 17.3805L200.213 20.3563L198.756 29.8878L204.59 34.0016L216.799 42.2667C240.291 58.1711 257.082 82.1015 264.093 109.466C273.43 115.803 279.323 126.331 279.323 137.996V146.678L196.568 170.213L196.534 170.222C191.598 171.593 186.298 172.481 180.813 172.481H124.718C119.233 172.481 113.933 171.593 108.997 170.222L108.959 170.212L26.4375 146.671V137.996C26.4375 126.164 32.3837 115.743 41.665 109.392C48.6984 82.0553 65.4881 58.1552 88.9632 42.2661L101.171 34.003L107.181 31.0373L105.548 20.3563ZM139.751 115.007H126.442C121.615 115.007 117.247 112.018 115.637 107.42L95.4064 51.7854C92.0619 54.0491 88.868 56.4933 85.8357 59.1018C68.5122 74.0037 56.4622 94.2649 51.7261 116.846C43.3349 120.754 37.9323 128.801 37.9323 137.996L112.074 159.147C116.212 160.296 120.465 160.986 124.718 160.986H180.813C185.066 160.986 189.319 160.296 193.457 159.147L267.829 137.996C267.829 128.916 262.426 120.754 254.035 116.961C249.326 94.3368 237.273 74.0315 219.925 59.1034C216.893 56.4944 213.699 54.0496 210.355 51.7854L190.124 107.42C188.514 112.018 184.146 115.007 179.319 115.007L139.791 115.007L139.784 115.007L139.776 115.007L139.772 115.007C139.765 115.007 139.758 115.007 139.751 115.007ZM139.756 103.512C139.763 103.512 139.77 103.512 139.776 103.512H165.87C171.617 103.512 176.56 99.3739 177.364 93.7414L187.365 28.3359C164.928 21.2092 140.833 21.2092 118.396 28.3359L128.396 93.7414C128.809 96.4627 130.185 98.9455 132.273 100.739C134.356 102.527 137.011 103.511 139.756 103.512Z" fill="black"/>
</svg>
