<svg width="199" height="168" viewBox="0 0 199 168" fill="none" xmlns="http://www.w3.org/2000/svg">
<path fill-rule="evenodd" clip-rule="evenodd" d="M151.931 40.1347C153.386 39.4597 154.918 38.9833 156.505 38.7315C157.367 38.5946 158.246 38.5241 159.137 38.5241C170.675 38.5241 190.97 40.2841 190.97 54.8432C190.97 69.4022 170.675 91.2471 159.137 91.2471C159.042 91.2471 158.946 91.2463 158.851 91.2447C158.034 92.9529 157.123 94.6349 156.124 96.2829C161.026 102.387 163.81 109.379 163.81 116.81C163.81 140.634 135.198 159.947 99.903 159.947C64.6083 159.947 35.9963 140.634 35.9963 116.81C35.9963 109.379 38.7799 102.387 43.6816 96.2829C42.683 94.6349 41.7724 92.9529 40.9553 91.2447C40.8599 91.2463 40.7644 91.2471 40.6688 91.2471C29.1314 91.2471 8.83599 69.4022 8.83599 54.8432C8.83599 40.2841 29.1314 38.5241 40.6688 38.5241C41.7548 38.5241 42.8214 38.6287 43.8627 38.8303C44.878 39.0269 45.8691 39.3156 46.8306 39.6897C47.8681 40.0932 48.871 40.596 49.8325 41.1892C50.4885 40.629 51.1646 40.0831 51.8599 39.5516C51.8451 39.0114 51.8489 38.4552 51.8705 37.8857C51.9244 36.4721 52.0885 34.9763 52.3523 33.438C53.9324 24.2227 59.0872 13.4844 65.5132 9.77434C75.4011 4.06556 84.5545 17.1592 89.0784 24.9949C89.3092 25.3946 89.5168 25.8024 89.7018 26.2172C93.0236 25.9024 96.431 25.7428 99.903 25.7428C103.563 25.7428 107.151 25.9202 110.643 26.2697C110.833 25.8367 111.049 25.4114 111.289 24.9949C115.813 17.1592 124.967 4.06556 134.854 9.77434C141.22 13.4493 146.338 24.0199 147.97 33.1757C148.322 35.1537 148.512 37.0656 148.517 38.8277C148.518 39.2178 148.51 39.6006 148.492 39.9751C148.997 40.372 149.491 40.7767 149.974 41.1892C150.609 40.7974 151.262 40.4451 151.931 40.1347ZM155.647 30.7824C156.788 30.6201 157.953 30.5358 159.137 30.5358C165.091 30.5358 174.163 30.9596 181.998 33.6767C185.958 35.0502 190.158 37.1948 193.435 40.6753C196.886 44.341 198.958 49.1292 198.958 54.8432C198.958 60.2065 197.136 65.5823 194.739 70.2949C192.296 75.0983 188.979 79.7582 185.333 83.832C181.694 87.8985 177.544 91.5854 173.311 94.3179C171.312 95.6083 169.079 96.826 166.71 97.7268C169.937 103.516 171.798 109.952 171.798 116.81C171.798 132.177 162.567 145.154 149.561 153.933C136.508 162.744 118.928 167.935 99.903 167.935C80.8784 167.935 63.2979 162.744 50.2449 153.933C37.239 145.154 28.008 132.177 28.008 116.81C28.008 109.952 29.8687 103.516 33.0964 97.7268C30.7275 96.826 28.4944 95.6083 26.4953 94.3179C22.262 91.5854 18.1124 87.8985 14.4732 83.832C10.8275 79.7582 7.51026 75.0983 5.06715 70.2949C2.67024 65.5823 0.847656 60.2065 0.847656 54.8432C0.847656 49.1292 2.91991 44.341 6.37128 40.6753C9.64813 37.1948 13.8478 35.0502 17.8083 33.6767C25.6426 30.9596 34.7146 30.5358 40.6688 30.5358C42.0426 30.5358 43.39 30.6492 44.7043 30.8661C45.4716 26.982 46.7229 23.0588 48.2879 19.4695C50.9918 13.2682 55.35 6.41794 61.5191 2.85624C65.7873 0.391938 70.3026 -0.138163 74.5648 0.867373C78.5792 1.81445 81.9276 4.00875 84.5347 6.26494C88.4956 9.69265 91.7555 14.1592 94.1206 17.8944C96.0303 17.8012 97.9588 17.7544 99.903 17.7544C102.032 17.7544 104.142 17.8105 106.229 17.9222C108.596 14.1814 111.862 9.70117 115.833 6.26494C118.44 4.00875 121.788 1.81445 125.803 0.867373C130.065 -0.138163 134.58 0.391938 138.849 2.85624C145.099 6.46485 149.498 13.4538 152.203 19.7536C153.694 23.228 154.896 27.0181 155.647 30.7824Z" fill="#3EF2B8"/>
<path d="M61.559 64.8849C61.559 79.444 52.2061 91.2465 40.6687 91.2465C29.1313 91.2465 8.83594 69.4015 8.83594 54.8425C8.83594 40.2834 29.1313 38.5234 40.6687 38.5234C52.2061 38.5234 61.559 50.3259 61.559 64.8849Z" fill="#17A074"/>
<path fill-rule="evenodd" clip-rule="evenodd" d="M40.6687 81.6604C44.9528 81.6604 51.9729 76.3488 51.9729 64.8849C51.9729 53.4211 44.9528 48.1094 40.6687 48.1094C35.1225 48.1094 28.5009 48.5689 23.5669 50.2801C21.1518 51.1177 19.817 52.031 19.1667 52.7217C18.7259 53.1899 18.4219 53.6918 18.4219 54.8425C18.4219 56.4139 19.0255 58.9723 20.7317 62.3269C22.3825 65.5725 24.7762 68.9907 27.569 72.1115C30.3696 75.2409 33.3509 77.8249 36.0262 79.5518C37.3558 80.4101 38.4855 80.976 39.3713 81.3101C40.2198 81.6301 40.6327 81.6579 40.6673 81.6602C40.67 81.6604 40.6704 81.6604 40.6687 81.6604ZM40.6687 91.2465C52.2061 91.2465 61.559 79.444 61.559 64.8849C61.559 50.3259 52.2061 38.5234 40.6687 38.5234C29.1313 38.5234 8.83594 40.2834 8.83594 54.8425C8.83594 69.4015 29.1313 91.2465 40.6687 91.2465Z" fill="black"/>
<path d="M138.248 64.8849C138.248 79.444 147.601 91.2465 159.138 91.2465C170.675 91.2465 190.971 69.4015 190.971 54.8425C190.971 40.2834 170.675 38.5234 159.138 38.5234C147.601 38.5234 138.248 50.3259 138.248 64.8849Z" fill="#17A074"/>
<path fill-rule="evenodd" clip-rule="evenodd" d="M159.138 81.6604C154.854 81.6604 147.834 76.3488 147.834 64.8849C147.834 53.4211 154.854 48.1094 159.138 48.1094C164.684 48.1094 171.306 48.5689 176.24 50.2801C178.655 51.1177 179.99 52.031 180.64 52.7217C181.081 53.1899 181.385 53.6918 181.385 54.8425C181.385 56.4139 180.781 58.9723 179.075 62.3269C177.424 65.5725 175.03 68.9907 172.238 72.1115C169.437 75.2409 166.456 77.8249 163.78 79.5518C162.451 80.4101 161.321 80.976 160.435 81.3101C159.587 81.6301 159.174 81.6579 159.139 81.6602C159.137 81.6604 159.136 81.6604 159.138 81.6604ZM159.138 91.2465C147.601 91.2465 138.248 79.444 138.248 64.8849C138.248 50.3259 147.601 38.5234 159.138 38.5234C170.675 38.5234 190.971 40.2834 190.971 54.8425C190.971 69.4015 170.675 91.2465 159.138 91.2465Z" fill="black"/>
<path d="M121.002 49.5189C130.89 55.2277 142.573 53.5035 147.097 45.6678C151.621 37.8321 144.743 15.4827 134.855 9.77389C124.967 4.06511 115.813 17.1588 111.289 24.9945C106.766 32.8302 111.114 43.8102 121.002 49.5189Z" fill="#17A074"/>
<path fill-rule="evenodd" clip-rule="evenodd" d="M138.734 40.9736C137.693 42.5487 132.852 45.2918 125.795 41.2172C118.587 37.056 118.694 31.3416 119.591 29.7875C121.742 26.0623 124.51 21.9972 127.333 19.5536C128.704 18.3678 129.553 18.039 129.838 17.9717C129.843 17.9707 129.846 17.9698 129.85 17.969C129.894 17.9868 129.964 18.0192 130.062 18.0756C130.742 18.4687 132.028 19.5916 133.539 21.9155C134.984 24.1369 136.295 26.9357 137.272 29.9132C138.253 32.9016 138.796 35.7556 138.909 38.0318C139.011 40.0972 138.728 40.9333 138.734 40.9736ZM129.793 17.9495C129.793 17.9497 129.797 17.9508 129.804 17.9524C129.797 17.9501 129.793 17.9493 129.793 17.9495ZM147.097 45.6678C142.573 53.5035 130.89 55.2277 121.002 49.5189C111.114 43.8102 106.766 32.8302 111.289 24.9945C115.813 17.1588 124.967 4.06511 134.855 9.77389C144.743 15.4827 151.621 37.8321 147.097 45.6678Z" fill="black"/>
<path d="M79.3654 49.5189C69.4775 55.2277 57.7944 53.5035 53.2705 45.6678C48.7465 37.8321 55.6246 15.4827 65.5125 9.77389C75.4004 4.06511 84.5538 17.1588 89.0777 24.9945C93.6017 32.8302 89.2533 43.8102 79.3654 49.5189Z" fill="#17A074"/>
<path fill-rule="evenodd" clip-rule="evenodd" d="M61.6334 40.9736C62.6743 42.5487 67.5151 45.2918 74.5724 41.2172C81.7798 37.056 81.6733 31.3416 80.776 29.7875C78.6253 26.0623 75.8574 21.9972 73.0337 19.5536C71.6635 18.3678 70.8139 18.039 70.5288 17.9717C70.5246 17.9707 70.5207 17.9698 70.517 17.969C70.4732 17.9868 70.4033 18.0192 70.3055 18.0756C69.6247 18.4687 68.3393 19.5916 66.8278 21.9155C65.3829 24.1369 64.0723 26.9357 63.0948 29.9132C62.1138 32.9016 61.5715 35.7556 61.4585 38.0318C61.3559 40.0972 61.6391 40.9333 61.6334 40.9736ZM70.5738 17.9495C70.5738 17.9497 70.5701 17.9508 70.5628 17.9524C70.5702 17.9501 70.5739 17.9493 70.5738 17.9495ZM53.2705 45.6678C57.7944 53.5035 69.4775 55.2277 79.3654 49.5189C89.2533 43.8102 93.6017 32.8302 89.0777 24.9945C84.5538 17.1588 75.4004 4.06511 65.5125 9.77389C55.6246 15.4827 48.7465 37.8321 53.2705 45.6678Z" fill="black"/>
<path d="M35.9972 70.4762C35.9972 42.2404 64.6092 25.7415 99.9039 25.7415C135.199 25.7415 163.811 42.2404 163.811 70.4762C163.811 98.7119 135.199 127.992 99.9039 127.992C64.6092 127.992 35.9972 98.7119 35.9972 70.4762Z" fill="#3EF2B8"/>
<path fill-rule="evenodd" clip-rule="evenodd" d="M60.0057 45.5142C50.659 51.7003 45.5832 60.0941 45.5832 70.4762C45.5832 81.4128 51.2141 93.3941 61.2737 102.831C71.2471 112.188 84.9362 118.406 99.9039 118.406C114.872 118.406 128.561 112.188 138.534 102.832C148.594 93.3941 154.225 81.4128 154.225 70.4762C154.225 60.0941 149.149 51.7003 139.802 45.5142C130.202 39.1604 116.208 35.3275 99.9039 35.3275C83.5997 35.3275 69.6058 39.1604 60.0057 45.5142ZM99.9039 25.7415C64.6092 25.7415 35.9972 42.2404 35.9972 70.4762C35.9972 98.7119 64.6092 127.992 99.9039 127.992C135.199 127.992 163.811 98.7119 163.811 70.4762C163.811 42.2404 135.199 25.7415 99.9039 25.7415Z" fill="black"/>
<path d="M112.226 51.4433C119.256 51.4656 140.909 58.2735 123.794 33.1345C107.991 27.6752 99.3043 28.5626 83.9581 33.0083L83.9268 42.8868C83.9051 49.7253 84.1414 57.3245 93.7749 57.355C103.408 57.3855 105.196 51.4211 112.226 51.4433Z" fill="black"/>
<circle cx="74.3399" cy="65.6836" r="7.98834" fill="black"/>
<circle cx="125.465" cy="65.6836" r="7.98834" fill="black"/>
<path d="M163.809 116.809C163.809 140.633 135.197 159.946 99.9028 159.946C64.6081 159.946 35.9961 140.633 35.9961 116.809C35.9961 92.985 64.6081 73.6719 99.9028 73.6719C135.197 73.6719 163.809 92.985 163.809 116.809Z" fill="#3EF2B8"/>
<path fill-rule="evenodd" clip-rule="evenodd" d="M139.729 139.366C149.564 132.727 154.223 124.574 154.223 116.809C154.223 109.044 149.564 100.891 139.729 94.2518C129.949 87.6509 115.897 83.2579 99.9028 83.2579C83.9081 83.2579 69.8561 87.6509 60.077 94.2518C50.2414 100.891 45.5821 109.044 45.5821 116.809C45.5821 124.574 50.2414 132.727 60.077 139.366C69.8561 145.967 83.9081 150.36 99.9028 150.36C115.897 150.36 129.949 145.967 139.729 139.366ZM99.9028 159.946C135.197 159.946 163.809 140.633 163.809 116.809C163.809 92.985 135.197 73.6719 99.9028 73.6719C64.6081 73.6719 35.9961 92.985 35.9961 116.809C35.9961 140.633 64.6081 159.946 99.9028 159.946Z" fill="black"/>
<ellipse cx="79.1328" cy="116.809" rx="4.793" ry="9.586" fill="black"/>
<ellipse cx="120.672" cy="116.809" rx="4.793" ry="9.586" fill="black"/>
<path d="M93.2355 55.5011C92.6547 51.9497 60.1301 50.4276 56.0645 57.0231C51.999 63.6186 51.7666 75.6935 55.4837 79.3464C60.1301 83.9125 82.7812 82.8978 90.3316 79.8537C97.8819 76.8097 93.8163 59.0525 93.2355 55.5011Z" fill="black"/>
<path d="M106.46 55.5011C107.041 51.9497 139.565 50.4276 143.631 57.0231C147.696 63.6186 147.929 75.6935 144.212 79.3464C139.565 83.9125 116.914 82.8978 109.364 79.8537C101.813 76.8097 105.879 59.0525 106.46 55.5011Z" fill="black"/>
<rect x="92.8477" y="60.457" width="14" height="8" fill="black"/>
</svg>
