<svg width="165" height="160" viewBox="0 0 165 160" fill="none" xmlns="http://www.w3.org/2000/svg">
<path d="M129.883 121.575C127.287 130.357 122.142 136.392 114.446 139.681C106.83 142.993 99.2563 143.537 91.7256 141.311C82.6095 138.616 79.0836 133.777 81.1478 126.793C82.8034 121.193 86.6109 117.205 92.5706 114.832C98.6299 112.412 104.751 112.117 110.934 113.944C114.66 115.046 118.043 116.722 121.084 118.974L142.299 47.2024L72.1219 43.6011L52.6542 109.461C50.2834 117.482 45.566 123.381 38.5021 127.157C31.5175 130.957 23.4671 131.51 14.351 128.815C9.83257 127.48 6.69985 125.539 4.95283 122.992C3.18538 120.515 2.76152 117.72 3.68125 114.609C5.23458 109.354 8.94244 105.412 14.8048 102.785C20.767 100.111 26.681 99.6411 32.5471 101.375C36.8277 102.64 40.5971 104.469 43.8552 106.86L66.9098 28.8653L155.482 34.9718L129.883 121.575Z" fill="#3EF2E7"/>
<path d="M139.262 121.622C136.666 130.404 131.521 136.439 123.825 139.728C116.209 143.04 108.635 143.584 101.105 141.358C91.9884 138.663 88.4625 133.824 90.5268 126.84C92.1823 121.239 95.9898 117.252 101.949 114.879C108.009 112.459 114.13 112.163 120.313 113.991C124.039 115.092 127.422 116.769 130.463 119.021L151.678 47.2492L81.5008 43.6479L62.0331 109.508C59.6623 117.529 54.9449 123.428 47.881 127.204C40.8964 131.004 32.846 131.557 23.7299 128.862C19.2115 127.526 16.0788 125.585 14.3317 123.039C12.5643 120.562 12.1404 117.767 13.0602 114.656C14.6135 109.401 18.3213 105.459 24.1837 102.831C30.1459 100.158 36.0599 99.688 41.926 101.422C46.2066 102.687 49.976 104.516 53.2341 106.907L76.2887 28.9122L164.861 35.0186L139.262 121.622Z" fill="#F23EEB"/>
<path d="M134.586 121.622C131.99 130.404 126.845 136.439 119.149 139.728C111.533 143.04 103.959 143.584 96.4287 141.358C87.3126 138.663 83.7867 133.824 85.851 126.84C87.5065 121.239 91.3141 117.252 97.2737 114.879C103.333 112.459 109.454 112.163 115.637 113.991C119.363 115.092 122.746 116.769 125.787 119.021L147.002 47.2492L76.825 43.6479L57.3573 109.508C54.9865 117.529 50.2691 123.428 43.2052 127.204C36.2206 131.004 28.1703 131.557 19.0541 128.862C14.5357 127.526 11.403 125.585 9.65596 123.039C7.88851 120.562 7.46465 117.767 8.38438 114.656C9.9377 109.401 13.6456 105.459 19.508 102.831C25.4701 100.158 31.3842 99.688 37.2502 101.422C41.5308 102.687 45.3002 104.516 48.5583 106.907C57.5617 76.4483 62.6095 59.3711 71.6129 28.9122L160.185 35.0186L134.586 121.622Z" fill="white"/>
</svg>
