<svg width="205" height="213" viewBox="0 0 205 213" fill="none" xmlns="http://www.w3.org/2000/svg">
<path fill-rule="evenodd" clip-rule="evenodd" d="M151.572 81.9883H163.042C159.291 60.697 135.935 40.9883 102.572 40.9883C69.2096 40.9883 45.8532 60.697 42.1023 81.9883H53.5723V145.988H28.0723C21.3092 145.988 14.8232 143.302 10.041 138.52C5.25888 133.737 2.57227 127.251 2.57227 120.488V87.9883C2.57227 38.6271 50.0056 2.98828 102.572 2.98828C155.139 2.98828 202.572 38.6271 202.572 87.9883V120.488C202.572 127.251 199.886 133.737 195.103 138.52C190.321 143.302 183.835 145.988 177.072 145.988H151.572V81.9883ZM47.5723 87.9883V139.988H28.0723C22.9005 139.988 17.9406 137.934 14.2837 134.277C10.6267 130.62 8.57227 125.66 8.57227 120.488V87.9883C8.57227 42.9915 52.1606 8.98828 102.572 8.98828C152.984 8.98828 196.572 42.9915 196.572 87.9883V120.488C196.572 125.66 194.518 130.62 190.861 134.277C187.204 137.934 182.244 139.988 177.072 139.988H157.572V87.9883H169.572C169.572 85.9717 169.423 83.9688 169.131 81.9883C165.403 56.6607 138.398 34.9883 102.572 34.9883C66.7466 34.9883 39.7417 56.6607 36.0131 81.9883C35.7215 83.9688 35.5723 85.9717 35.5723 87.9883H47.5723Z" fill="#F23EEB"/>
<rect x="21.5723" y="59.9883" width="161" height="76" rx="34.5" fill="#F23EEB"/>
<path fill-rule="evenodd" clip-rule="evenodd" d="M102.572 34.9883C141.199 34.9883 169.572 60.1826 169.572 87.9883H157.572V139.988H177.072C182.244 139.988 187.204 137.934 190.861 134.277C194.518 130.62 196.572 125.66 196.572 120.488V95.9883V87.9883C196.572 42.9915 152.984 8.98828 102.572 8.98828C52.1606 8.98828 8.57227 42.9915 8.57227 87.9883V95.9883V120.488C8.57227 125.66 10.6267 130.62 14.2837 134.277C17.9406 137.934 22.9005 139.988 28.0723 139.988H47.5723V87.9883H35.5723C35.5723 60.1826 63.9452 34.9883 102.572 34.9883Z" fill="black"/>
<path fill-rule="evenodd" clip-rule="evenodd" d="M159.138 81.2132C158.731 75.778 157.154 69.9208 154.938 64.7603C152.233 58.4597 147.833 51.4682 141.579 47.8578C137.308 45.392 132.79 44.8615 128.525 45.8677C124.508 46.8153 121.158 49.0109 118.55 51.2678C114.581 54.703 111.315 59.181 108.949 62.9211C106.863 62.8096 104.755 62.7536 102.628 62.7536C100.685 62.7536 98.7582 62.8003 96.8502 62.8933C94.4851 59.1589 91.226 54.6945 87.2662 51.2678C84.6583 49.0109 81.3083 46.8153 77.2914 45.8677C73.0263 44.8615 68.508 45.392 64.2371 47.8578C58.0649 51.4213 53.7055 58.2742 51.0012 64.4763C48.7855 69.5579 47.1984 75.3092 46.723 80.6714C36.8656 89.3619 30.7208 101.173 30.7208 115.488C30.7208 124.222 33.0137 132.843 36.9784 140.76C33.0348 147.047 30.7207 154.172 30.7207 161.821C30.7207 177.194 39.9548 190.174 52.9628 198.954C66.0179 207.766 83.6008 212.958 102.627 212.958C121.654 212.958 139.237 207.766 152.292 198.954C165.3 190.174 174.534 177.194 174.534 161.821C174.534 154.172 172.22 147.047 168.276 140.76C172.241 132.843 174.534 124.222 174.534 115.488C174.534 101.48 168.647 89.8557 159.138 81.2132ZM158.849 141.294C163.751 133.204 166.534 124.295 166.534 115.488C166.534 102.812 160.767 92.5005 151.217 84.9862C151.676 75.0895 145.624 59.4305 137.579 54.786C127.691 49.0772 118.538 62.1709 114.014 70.0066C113.774 70.4228 113.559 70.8479 113.368 71.2806C109.876 70.931 106.288 70.7536 102.628 70.7536C99.1552 70.7536 95.7475 70.9133 92.4254 71.2281C92.2404 70.8135 92.0329 70.406 91.8023 70.0066C87.2784 62.1709 78.125 49.0772 68.2371 54.786C60.3063 59.3648 54.3118 74.6488 54.5838 84.5629C44.7082 92.1114 38.7208 102.572 38.7208 115.488C38.7208 124.295 41.5044 133.204 46.4061 141.294C41.5043 147.398 38.7207 154.39 38.7207 161.821C38.7207 185.645 67.3327 204.958 102.627 204.958C137.922 204.958 166.534 185.645 166.534 161.821C166.534 154.39 163.75 147.398 158.849 141.294Z" fill="#F23EEB"/>
<path d="M123.726 94.5307C133.614 100.239 145.297 98.5152 149.821 90.6795C154.345 82.8438 147.467 60.4944 137.579 54.7856C127.691 49.0768 118.538 62.1705 114.014 70.0062C109.49 77.8419 113.838 88.8219 123.726 94.5307Z" fill="#B01DAA"/>
<path fill-rule="evenodd" clip-rule="evenodd" d="M141.458 85.9853C140.417 87.5604 135.577 90.3035 128.519 86.2289C121.312 82.0677 121.419 76.3534 122.316 74.7992C124.467 71.0741 127.234 67.0089 130.058 64.5653C131.428 63.3796 132.278 63.0507 132.563 62.9834C132.567 62.9824 132.571 62.9815 132.575 62.9807C132.619 62.9985 132.689 63.0309 132.786 63.0873C133.467 63.4804 134.752 64.6034 136.264 66.9272C137.709 69.1486 139.02 71.9475 139.997 74.9249C140.978 77.9133 141.52 80.7673 141.633 83.0435C141.736 85.1089 141.453 85.945 141.458 85.9853ZM132.518 62.9612C132.518 62.9614 132.522 62.9625 132.529 62.9641C132.522 62.9618 132.518 62.961 132.518 62.9612ZM149.821 90.6795C145.297 98.5152 133.614 100.239 123.726 94.5307C113.838 88.8219 109.49 77.8419 114.014 70.0062C118.538 62.1705 127.691 49.0768 137.579 54.7856C147.467 60.4944 154.345 82.8438 149.821 90.6795Z" fill="black"/>
<path d="M82.09 94.5307C72.2021 100.239 60.519 98.5152 55.9951 90.6795C51.4711 82.8438 58.3492 60.4944 68.2371 54.7856C78.125 49.0768 87.2784 62.1705 91.8023 70.0062C96.3263 77.8419 91.9779 88.8219 82.09 94.5307Z" fill="#B01DAA"/>
<path fill-rule="evenodd" clip-rule="evenodd" d="M64.358 85.9853C65.3989 87.5604 70.2397 90.3035 77.297 86.2289C84.5044 82.0677 84.3979 76.3534 83.5006 74.7992C81.3499 71.0741 78.582 67.0089 75.7583 64.5653C74.3881 63.3796 73.5385 63.0507 73.2534 62.9834C73.2492 62.9824 73.2453 62.9815 73.2417 62.9807C73.1978 62.9985 73.1279 63.0309 73.0301 63.0873C72.3493 63.4804 71.0639 64.6034 69.5524 66.9272C68.1075 69.1486 66.7969 71.9475 65.8194 74.9249C64.8384 77.9133 64.2961 80.7673 64.1831 83.0435C64.0805 85.1089 64.3637 85.945 64.358 85.9853ZM73.2984 62.9612C73.2984 62.9614 73.2947 62.9625 73.2874 62.9641C73.2948 62.9618 73.2985 62.961 73.2984 62.9612ZM55.9951 90.6795C60.519 98.5152 72.2021 100.239 82.09 94.5307C91.9779 88.8219 96.3263 77.8419 91.8023 70.0062C87.2784 62.1705 78.125 49.0768 68.2371 54.7856C58.3492 60.4944 51.4711 82.8438 55.9951 90.6795Z" fill="black"/>
<path d="M38.7199 115.488C38.7199 87.2521 67.3318 70.7532 102.627 70.7532C137.921 70.7532 166.533 87.2521 166.533 115.488C166.533 143.724 137.921 173.004 102.627 173.004C67.3318 173.004 38.7199 143.724 38.7199 115.488Z" fill="#F23EEB"/>
<path fill-rule="evenodd" clip-rule="evenodd" d="M62.7284 90.5259C53.3817 96.712 48.3059 105.106 48.3059 115.488C48.3059 126.424 53.9368 138.406 63.9964 147.843C73.9698 157.2 87.6588 163.418 102.627 163.418C117.594 163.418 131.283 157.2 141.257 147.843C151.316 138.406 156.947 126.424 156.947 115.488C156.947 105.106 151.871 96.712 142.525 90.5259C132.925 84.1721 118.931 80.3392 102.627 80.3392C86.3224 80.3392 72.3284 84.1721 62.7284 90.5259ZM102.627 70.7532C67.3318 70.7532 38.7199 87.2521 38.7199 115.488C38.7199 143.724 67.3318 173.004 102.627 173.004C137.921 173.004 166.533 143.724 166.533 115.488C166.533 87.2521 137.921 70.7532 102.627 70.7532Z" fill="black"/>
<path d="M114.95 96.4511C121.98 96.4734 143.634 103.281 126.518 78.1423C110.716 72.683 102.029 73.5704 86.6827 78.0161L86.6514 87.8946C86.6297 94.7331 86.866 102.332 96.4995 102.363C106.133 102.393 107.921 96.4289 114.95 96.4511Z" fill="black"/>
<circle cx="77.0645" cy="110.695" r="7.98834" fill="black"/>
<circle cx="128.19" cy="110.695" r="7.98834" fill="black"/>
<path d="M166.534 161.821C166.534 185.645 137.922 204.958 102.627 204.958C67.3327 204.958 38.7207 185.645 38.7207 161.821C38.7207 137.997 67.3327 118.684 102.627 118.684C137.922 118.684 166.534 137.997 166.534 161.821Z" fill="#F23EEB"/>
<path fill-rule="evenodd" clip-rule="evenodd" d="M142.453 184.378C152.289 177.739 156.948 169.586 156.948 161.821C156.948 154.055 152.289 145.903 142.453 139.263C132.674 132.663 118.622 128.27 102.627 128.27C86.6327 128.27 72.5807 132.663 62.8016 139.263C52.966 145.903 48.3067 154.055 48.3067 161.821C48.3067 169.586 52.966 177.739 62.8016 184.378C72.5807 190.979 86.6327 195.372 102.627 195.372C118.622 195.372 132.674 190.979 142.453 184.378ZM102.627 204.958C137.922 204.958 166.534 185.645 166.534 161.821C166.534 137.997 137.922 118.684 102.627 118.684C67.3327 118.684 38.7207 137.997 38.7207 161.821C38.7207 185.645 67.3327 204.958 102.627 204.958Z" fill="black"/>
<ellipse cx="81.8575" cy="161.82" rx="4.793" ry="9.586" fill="black"/>
<ellipse cx="123.397" cy="161.82" rx="4.793" ry="9.586" fill="black"/>
<path d="M8.57227 120.488C8.57227 125.66 10.6267 130.62 14.2837 134.277C17.9406 137.934 22.9005 139.988 28.0723 139.988H47.5723V87.9883H8.57227V120.488Z" fill="#F23EEB"/>
<path fill-rule="evenodd" clip-rule="evenodd" d="M16.5723 120.488C16.5723 123.538 17.7839 126.463 19.9405 128.62C22.0972 130.777 25.0223 131.988 28.0723 131.988H39.5723V95.9883H16.5723V120.488ZM8.57227 120.488C8.57227 125.66 10.6267 130.62 14.2837 134.277C17.9406 137.934 22.9005 139.988 28.0723 139.988H47.5723V87.9883H8.57227V120.488Z" fill="black"/>
<path d="M196.572 120.488C196.572 125.66 194.518 130.62 190.861 134.277C187.204 137.934 182.244 139.988 177.072 139.988H157.572V87.9883H196.572V120.488Z" fill="#F23EEB"/>
<path fill-rule="evenodd" clip-rule="evenodd" d="M188.572 120.488C188.572 123.538 187.361 126.463 185.204 128.62C183.047 130.777 180.122 131.988 177.072 131.988H165.572V95.9883H188.572V120.488ZM196.572 120.488C196.572 125.66 194.518 130.62 190.861 134.277C187.204 137.934 182.244 139.988 177.072 139.988H157.572V87.9883H196.572V120.488Z" fill="black"/>
<path d="M188.572 87.9883C188.572 48.7761 150.069 16.9883 102.572 16.9883C55.0758 16.9883 16.5723 48.7761 16.5723 87.9883H27.5723C27.5723 54.2989 61.1509 26.9883 102.572 26.9883C143.994 26.9883 177.572 54.2989 177.572 87.9883H188.572Z" fill="#F23EEB"/>
</svg>
