<svg width="323" height="165" viewBox="0 0 323 165" fill="none" xmlns="http://www.w3.org/2000/svg">
<path opacity="0.5" d="M56.6467 45.2988L56.3497 70.9089L35.3519 70.6654L46.9346 66.3083C45.4257 60.3426 41.0347 51.6729 36.8626 45.0694L56.6467 45.2988ZM92.4523 45.7141C89.9432 52.7257 85.4681 61.7781 81.8793 67.6846L92.0339 71.3227L71.643 71.0863L71.9399 45.4762L92.4523 45.7141ZM118.09 85.4635L118.251 71.6268L94.7042 71.3537C98.6515 65.9369 103.358 57.8583 107.698 50.0182L93.7874 45.7296L113.936 45.9632L114.096 32.1265L72.1004 31.6395L72.2538 18.4096L56.9606 18.2323L56.8072 31.4621L15.9039 30.9878L15.7434 44.8245L36.3771 45.0638L23.8206 49.6524C27.6286 56.2517 31.4141 64.793 32.6816 70.6344L9.7418 70.3684L9.58134 84.2051L47.693 84.6471C36.9884 97.0263 21.1974 108.375 5.83096 114.509C9.19567 117.462 13.6204 123.219 15.8857 126.765C30.5351 119.652 44.8739 107.922 56.0767 94.4556L55.6474 131.475L70.9406 131.652L71.3727 94.3902C82.136 108.354 96.1961 120.656 110.677 128.107C112.902 124.613 117.581 118.962 120.891 116.087C105.793 109.599 90.3919 97.767 80.1001 85.0229L118.09 85.4635ZM237.192 90.0009L237.099 98.0116L225.083 97.8723L225.176 89.8615L237.192 90.0009ZM262.466 98.3058L249.965 98.1608L250.057 90.1501L262.559 90.295L262.466 98.3058ZM249.744 117.217L249.839 108.963L262.341 109.108L262.245 117.362L249.744 117.217ZM224.957 108.675L236.974 108.814L236.878 117.067L224.862 116.928L224.957 108.675ZM212.036 81.9401C208.673 78.8663 203.506 74.3149 200.258 71.7281C205.324 64.0178 209.791 55.6936 212.927 46.9898L205.096 41.8006L202.541 42.3779L197.564 42.3202L197.823 19.9872L183.622 19.8225L183.363 42.1555L168.92 41.988L168.769 54.9751L195.107 55.2805C187.786 69.0342 175.986 81.6434 163.884 88.908C166.038 91.6035 169.232 98.8027 170.401 102.701C174.56 99.957 178.726 96.6063 182.776 92.7688L182.309 133.065L196.51 133.23L197.073 84.68C200.548 88.6048 204.138 93.0165 206.168 95.9534L211.963 88.2516L211.442 133.16L224.672 133.314L224.727 128.58L262.11 129.014L262.057 133.626L276.015 133.788L276.651 78.9263L212.079 78.1775L212.036 81.9401ZM258.148 62.4453L230.96 62.13L231.061 53.391L258.249 53.7063L258.148 62.4453ZM218.442 42.4409L218.09 72.7846L271.374 73.4025L271.726 43.0588L218.442 42.4409ZM211.968 25.0069L211.827 37.1444L277.491 37.9059L277.632 25.7684L211.968 25.0069Z" fill="#F23E3E"/>
<path opacity="0.5" d="M54.3498 48.8692L54.0529 74.4792L33.055 74.2357L44.6377 69.8786C43.1288 63.9129 38.7379 55.2432 34.5658 48.6397L54.3498 48.8692ZM90.1554 49.2844C87.6463 56.296 83.1712 65.3484 79.5824 71.255L89.737 74.8931L69.3461 74.6566L69.6431 49.0465L90.1554 49.2844ZM115.794 89.0338L115.954 75.1971L92.4073 74.924C96.3546 69.5072 101.061 61.4286 105.401 53.5885L91.4905 49.2999L111.639 49.5335L111.799 35.6968L69.8035 35.2098L69.957 21.9799L54.6637 21.8026L54.5103 35.0324L13.607 34.5581L13.4465 48.3948L34.0803 48.6341L21.5238 53.2227C25.3317 59.822 29.1172 68.3633 30.3848 74.2048L7.44493 73.9387L7.28447 87.7755L45.3962 88.2174C34.6916 100.597 18.9005 111.946 3.53408 118.08C6.8988 121.032 11.3235 126.789 13.5888 130.335C28.2382 123.222 42.577 111.492 53.7798 98.0259L53.3505 135.045L68.6437 135.223L69.0758 97.9605C79.8391 111.924 93.8992 124.226 108.38 131.678C110.605 128.183 115.284 122.532 118.595 119.657C103.496 113.169 88.0951 101.337 77.8032 88.5933L115.794 89.0338ZM234.895 93.5712L234.802 101.582L222.786 101.443L222.879 93.4318L234.895 93.5712ZM260.169 101.876L247.668 101.731L247.761 93.7204L260.262 93.8654L260.169 101.876ZM247.447 120.787L247.542 112.533L260.044 112.678L259.948 120.932L247.447 120.787ZM222.661 112.245L234.677 112.384L234.581 120.638L222.565 120.498L222.661 112.245ZM209.739 85.5104C206.376 82.4366 201.209 77.8852 197.961 75.2984C203.028 67.5881 207.494 59.2639 210.63 50.5601L202.8 45.3709L200.244 45.9482L195.267 45.8905L195.526 23.5575L181.325 23.3928L181.066 45.7258L166.623 45.5583L166.472 58.5454L192.811 58.8508C185.489 72.6045 173.689 85.2137 161.587 92.4783C163.741 95.1738 166.935 102.373 168.104 106.271C172.263 103.527 176.429 100.177 180.48 96.3391L180.012 136.636L194.213 136.8L194.776 88.2503C198.251 92.1751 201.841 96.5868 203.871 99.5237L209.666 91.8219L209.145 136.731L222.375 136.884L222.43 132.15L259.813 132.584L259.76 137.196L273.718 137.358L274.354 82.4966L209.783 81.7478L209.739 85.5104ZM255.851 66.0156L228.663 65.7003L228.764 56.9614L255.952 57.2767L255.851 66.0156ZM216.145 46.0112L215.793 76.3549L269.077 76.9728L269.429 46.6291L216.145 46.0112ZM209.671 28.5772L209.53 40.7147L275.194 41.4762L275.335 29.3387L209.671 28.5772Z" fill="#2B5E5E"/>
<path opacity="0.5" d="M65.3498 44.8692L65.0529 70.4792L44.055 70.2357L55.6377 65.8786C54.1288 59.9129 49.7379 51.2432 45.5658 44.6397L65.3498 44.8692ZM101.155 45.2844C98.6463 52.296 94.1712 61.3484 90.5824 67.255L100.737 70.8931L80.3461 70.6566L80.6431 45.0465L101.155 45.2844ZM126.794 85.0338L126.954 71.1971L103.407 70.924C107.355 65.5072 112.061 57.4286 116.401 49.5885L102.491 45.2999L122.639 45.5335L122.799 31.6968L80.8035 31.2098L80.957 17.9799L65.6637 17.8026L65.5103 31.0324L24.607 30.5581L24.4465 44.3948L45.0803 44.6341L32.5238 49.2227C36.3317 55.822 40.1172 64.3633 41.3848 70.2048L18.4449 69.9387L18.2845 83.7755L56.3962 84.2174C45.6916 96.5966 29.9005 107.946 14.5341 114.08C17.8988 117.032 22.3235 122.789 24.5888 126.335C39.2382 119.222 53.577 107.492 64.7798 94.0259L64.3505 131.045L79.6437 131.223L80.0758 93.9605C90.8391 107.924 104.899 120.226 119.38 127.678C121.605 124.183 126.284 118.532 129.595 115.657C114.496 109.169 99.0951 97.3373 88.8032 84.5933L126.794 85.0338ZM245.895 89.5712L245.802 97.5819L233.786 97.4426L233.879 89.4318L245.895 89.5712ZM271.169 97.8761L258.668 97.7311L258.761 89.7204L271.262 89.8654L271.169 97.8761ZM258.447 116.787L258.542 108.533L271.044 108.678L270.948 116.932L258.447 116.787ZM233.661 108.245L245.677 108.384L245.581 116.638L233.565 116.498L233.661 108.245ZM220.739 81.5104C217.376 78.4366 212.209 73.8852 208.961 71.2984C214.028 63.5881 218.494 55.2639 221.63 46.5601L213.8 41.3709L211.244 41.9482L206.267 41.8905L206.526 19.5575L192.325 19.3928L192.066 41.7258L177.623 41.5583L177.472 54.5454L203.811 54.8508C196.489 68.6045 184.689 81.2137 172.587 88.4783C174.741 91.1738 177.935 98.373 179.104 102.271C183.263 99.5273 187.429 96.1766 191.48 92.3391L191.012 132.636L205.213 132.8L205.776 84.2503C209.251 88.1751 212.841 92.5868 214.871 95.5237L220.666 87.8219L220.145 132.731L233.375 132.884L233.43 128.15L270.813 128.584L270.76 133.196L284.718 133.358L285.354 78.4966L220.783 77.7478L220.739 81.5104ZM266.851 62.0156L239.663 61.7003L239.764 52.9614L266.952 53.2767L266.851 62.0156ZM227.145 42.0112L226.793 72.3549L280.077 72.9728L280.429 42.6291L227.145 42.0112ZM220.671 24.5772L220.53 36.7147L286.194 37.4762L286.335 25.3387L220.671 24.5772Z" fill="#CFEAE1"/>
</svg>
