<svg width="199" height="168" viewBox="0 0 199 168" fill="none" xmlns="http://www.w3.org/2000/svg">
<path fill-rule="evenodd" clip-rule="evenodd" d="M151.591 40.1464C153.046 39.4714 154.578 38.995 156.165 38.7432C157.027 38.6064 157.906 38.5358 158.797 38.5358C170.335 38.5358 190.63 40.2958 190.63 54.8549C190.63 69.4139 170.335 91.2589 158.797 91.2589C158.702 91.2589 158.606 91.258 158.511 91.2564C157.694 92.9646 156.783 94.6466 155.785 96.2947C160.686 102.399 163.47 109.391 163.47 116.822C163.47 140.645 134.858 159.959 99.5632 159.959C64.2685 159.959 35.6565 140.645 35.6565 116.822C35.6565 109.391 38.44 102.399 43.3417 96.2947C42.3432 94.6466 41.4326 92.9646 40.6154 91.2564C40.5201 91.258 40.4246 91.2589 40.3289 91.2589C28.7915 91.2589 8.49615 69.4139 8.49615 54.8549C8.49615 40.2958 28.7915 38.5358 40.3289 38.5358C41.4149 38.5358 42.4816 38.6404 43.5229 38.842C44.5381 39.0386 45.5293 39.3274 46.4908 39.7014C47.5282 40.1049 48.5311 40.6077 49.4926 41.2009C50.1487 40.6407 50.8247 40.0948 51.5201 39.5633C51.5052 39.0231 51.509 38.467 51.5307 37.8975C51.5845 36.4838 51.7487 34.988 52.0124 33.4497C53.5925 24.2345 58.7473 13.4961 65.1734 9.78606C75.0613 4.07728 84.2147 17.171 88.7386 25.0067C88.9693 25.4063 89.177 25.8141 89.362 26.229C92.6838 25.9142 96.0911 25.7545 99.5632 25.7545C103.223 25.7545 106.811 25.9319 110.303 26.2814C110.494 25.8485 110.709 25.4231 110.949 25.0067C115.473 17.171 124.627 4.07728 134.515 9.78606C140.88 13.461 145.998 24.0316 147.63 33.1874C147.982 35.1654 148.172 37.0773 148.177 38.8394C148.178 39.2295 148.17 39.6123 148.152 39.9868C148.657 40.3837 149.151 40.7884 149.634 41.2009C150.269 40.8091 150.922 40.4568 151.591 40.1464ZM155.307 30.7941C156.448 30.6318 157.613 30.5475 158.797 30.5475C164.752 30.5475 173.824 30.9713 181.658 33.6884C185.618 35.062 189.818 37.2066 193.095 40.687C196.546 44.3528 198.619 49.1409 198.619 54.8549C198.619 60.2182 196.796 65.594 194.399 70.3066C191.956 75.11 188.639 79.77 184.993 83.8437C181.354 87.9102 177.204 91.5971 172.971 94.3297C170.972 95.6201 168.739 96.8377 166.37 97.7385C169.598 103.527 171.458 109.964 171.458 116.822C171.458 132.189 162.227 145.166 149.221 153.945C136.168 162.756 118.588 167.947 99.5632 167.947C80.5386 167.947 62.958 162.756 49.9051 153.945C36.8992 145.166 27.6682 132.189 27.6682 116.822C27.6682 109.964 29.5288 103.527 32.7566 97.7385C30.3877 96.8377 28.1545 95.6201 26.1555 94.3297C21.9222 91.5971 17.7725 87.9102 14.1333 83.8437C10.4876 79.77 7.17042 75.11 4.72731 70.3066C2.33039 65.594 0.507812 60.2182 0.507812 54.8549C0.507812 49.1409 2.58006 44.3528 6.03144 40.687C9.30829 37.2066 13.508 35.062 17.4685 33.6884C25.3028 30.9713 34.3748 30.5475 40.3289 30.5475C41.7028 30.5475 43.0501 30.6609 44.3645 30.8778C45.1318 26.9937 46.3831 23.0705 47.9481 19.4812C50.652 13.2799 55.0102 6.42965 61.1792 2.86796C65.4475 0.403657 69.9628 -0.126444 74.225 0.879091C78.2394 1.82617 81.5877 4.02047 84.1949 6.27666C88.1558 9.70437 91.4157 14.1709 93.7808 17.9061C95.6904 17.8129 97.6189 17.7662 99.5632 17.7662C101.692 17.7662 103.802 17.8222 105.89 17.9339C108.256 14.1931 111.522 9.71288 115.493 6.27666C118.1 4.02047 121.449 1.82617 125.463 0.879091C129.725 -0.126444 134.241 0.403657 138.509 2.86796C144.759 6.47656 149.158 13.4655 151.863 19.7653C153.355 23.2397 154.557 27.0298 155.307 30.7941Z" fill="#F2C03E"/>
<path d="M61.2191 64.8967C61.2191 79.4557 51.8662 91.2582 40.3289 91.2582C28.7915 91.2582 8.49609 69.4132 8.49609 54.8542C8.49609 40.2951 28.7915 38.5352 40.3289 38.5352C51.8662 38.5352 61.2191 50.3376 61.2191 64.8967Z" fill="#A07A17"/>
<path fill-rule="evenodd" clip-rule="evenodd" d="M40.3289 81.6722C44.6129 81.6722 51.6331 76.3605 51.6331 64.8967C51.6331 53.4328 44.6129 48.1212 40.3289 48.1212C34.7827 48.1212 28.1611 48.5806 23.227 50.2918C20.812 51.1294 19.4772 52.0427 18.8269 52.7334C18.386 53.2016 18.0821 53.7035 18.0821 54.8542C18.0821 56.4256 18.6856 58.984 20.3918 62.3386C22.0426 65.5842 24.4364 69.0025 27.2292 72.1232C30.0297 75.2526 33.011 77.8366 35.6864 79.5635C37.016 80.4218 38.1457 80.9878 39.0314 81.3218C39.8799 81.6418 40.2929 81.6696 40.3275 81.672C40.3301 81.6721 40.3306 81.6722 40.3289 81.6722ZM40.3289 91.2582C51.8662 91.2582 61.2191 79.4557 61.2191 64.8967C61.2191 50.3376 51.8662 38.5352 40.3289 38.5352C28.7915 38.5352 8.49609 40.2951 8.49609 54.8542C8.49609 69.4132 28.7915 91.2582 40.3289 91.2582Z" fill="black"/>
<path d="M137.908 64.8967C137.908 79.4557 147.261 91.2582 158.798 91.2582C170.335 91.2582 190.631 69.4132 190.631 54.8542C190.631 40.2951 170.335 38.5352 158.798 38.5352C147.261 38.5352 137.908 50.3376 137.908 64.8967Z" fill="#A07A17"/>
<path fill-rule="evenodd" clip-rule="evenodd" d="M158.798 81.6722C154.514 81.6722 147.494 76.3605 147.494 64.8967C147.494 53.4328 154.514 48.1212 158.798 48.1212C164.344 48.1212 170.966 48.5806 175.9 50.2918C178.315 51.1294 179.65 52.0427 180.3 52.7334C180.741 53.2016 181.045 53.7035 181.045 54.8542C181.045 56.4256 180.441 58.984 178.735 62.3386C177.084 65.5842 174.691 69.0025 171.898 72.1232C169.097 75.2526 166.116 77.8366 163.441 79.5635C162.111 80.4218 160.981 80.9878 160.096 81.3218C159.247 81.6418 158.834 81.6696 158.799 81.672C158.797 81.6721 158.796 81.6722 158.798 81.6722ZM158.798 91.2582C147.261 91.2582 137.908 79.4557 137.908 64.8967C137.908 50.3376 147.261 38.5352 158.798 38.5352C170.335 38.5352 190.631 40.2951 190.631 54.8542C190.631 69.4132 170.335 91.2582 158.798 91.2582Z" fill="black"/>
<path d="M120.662 49.5307C130.55 55.2394 142.233 53.5152 146.757 45.6795C151.281 37.8438 144.403 15.4944 134.515 9.78561C124.627 4.07682 115.474 17.1705 110.95 25.0062C106.426 32.8419 110.774 43.8219 120.662 49.5307Z" fill="#A07A17"/>
<path fill-rule="evenodd" clip-rule="evenodd" d="M138.394 40.9853C137.353 42.5604 132.512 45.3035 125.455 41.2289C118.248 37.0677 118.354 31.3534 119.251 29.7992C121.402 26.0741 124.17 22.0089 126.994 19.5653C128.364 18.3796 129.213 18.0507 129.499 17.9834C129.503 17.9824 129.507 17.9815 129.51 17.9807C129.554 17.9985 129.624 18.0309 129.722 18.0873C130.403 18.4804 131.688 19.6034 133.2 21.9272C134.644 24.1486 135.955 26.9475 136.933 29.9249C137.914 32.9133 138.456 35.7673 138.569 38.0435C138.671 40.1089 138.388 40.945 138.394 40.9853ZM129.454 17.9612C129.454 17.9614 129.457 17.9625 129.465 17.9641C129.457 17.9618 129.453 17.961 129.454 17.9612ZM146.757 45.6795C142.233 53.5152 130.55 55.2394 120.662 49.5307C110.774 43.8219 106.426 32.8419 110.95 25.0062C115.474 17.1705 124.627 4.07682 134.515 9.78561C144.403 15.4944 151.281 37.8438 146.757 45.6795Z" fill="black"/>
<path d="M79.0256 49.5307C69.1377 55.2394 57.4546 53.5152 52.9306 45.6795C48.4067 37.8438 55.2848 15.4944 65.1727 9.78561C75.0606 4.07682 84.2139 17.1705 88.7379 25.0062C93.2618 32.8419 88.9135 43.8219 79.0256 49.5307Z" fill="#A07A17"/>
<path fill-rule="evenodd" clip-rule="evenodd" d="M61.2936 40.9853C62.3345 42.5604 67.1752 45.3035 74.2326 41.2289C81.44 37.0677 81.3334 31.3534 80.4362 29.7992C78.2854 26.0741 75.5176 22.0089 72.6939 19.5653C71.3236 18.3796 70.4741 18.0507 70.1889 17.9834C70.1848 17.9824 70.1809 17.9815 70.1772 17.9807C70.1333 17.9985 70.0635 18.0309 69.9657 18.0873C69.2849 18.4804 67.9995 19.6034 66.4879 21.9272C65.0431 24.1486 63.7324 26.9475 62.755 29.9249C61.7739 32.9133 61.2316 35.7673 61.1186 38.0435C61.0161 40.1089 61.2993 40.945 61.2936 40.9853ZM70.234 17.9612C70.2339 17.9614 70.2302 17.9625 70.2229 17.9641C70.2304 17.9618 70.234 17.961 70.234 17.9612ZM52.9306 45.6795C57.4545 53.5152 69.1377 55.2394 79.0256 49.5307C88.9135 43.8219 93.2618 32.8419 88.7379 25.0062C84.2139 17.1705 75.0606 4.07682 65.1727 9.78561C55.2848 15.4944 48.4067 37.8438 52.9306 45.6795Z" fill="black"/>
<path d="M35.6574 70.4879C35.6574 42.2521 64.2693 25.7532 99.564 25.7532C134.859 25.7532 163.471 42.2521 163.471 70.4879C163.471 98.7236 134.859 128.004 99.564 128.004C64.2693 128.004 35.6574 98.7236 35.6574 70.4879Z" fill="#F2C03E"/>
<path fill-rule="evenodd" clip-rule="evenodd" d="M59.6659 45.5259C50.3192 51.712 45.2434 60.1058 45.2434 70.4879C45.2434 81.4245 50.8743 93.4058 60.9339 102.843C70.9073 112.2 84.5963 118.418 99.564 118.418C114.532 118.418 128.221 112.2 138.194 102.843C148.254 93.4058 153.885 81.4245 153.885 70.4879C153.885 60.1058 148.809 51.712 139.462 45.5259C129.862 39.1721 115.868 35.3392 99.564 35.3392C83.2599 35.3392 69.2659 39.1721 59.6659 45.5259ZM99.564 25.7532C64.2693 25.7532 35.6574 42.2521 35.6574 70.4879C35.6574 98.7236 64.2693 128.004 99.564 128.004C134.859 128.004 163.471 98.7236 163.471 70.4879C163.471 42.2521 134.859 25.7532 99.564 25.7532Z" fill="black"/>
<path d="M111.886 51.455C118.916 51.4773 140.569 58.2852 123.454 33.1462C107.651 27.6869 98.9645 28.5743 83.6182 33.02L83.5869 42.8985C83.5653 49.737 83.8016 57.3362 93.4351 57.3667C103.069 57.3972 104.856 51.4328 111.886 51.455Z" fill="black"/>
<circle cx="74.0001" cy="65.6954" r="7.98834" fill="black"/>
<circle cx="125.125" cy="65.6954" r="7.98834" fill="black"/>
<path d="M163.47 116.821C163.47 140.645 134.858 159.958 99.5629 159.958C64.2682 159.958 35.6562 140.645 35.6562 116.821C35.6562 92.9967 64.2682 73.6836 99.5629 73.6836C134.858 73.6836 163.47 92.9967 163.47 116.821Z" fill="#F2C03E"/>
<path fill-rule="evenodd" clip-rule="evenodd" d="M139.389 139.378C149.224 132.739 153.884 124.586 153.884 116.821C153.884 109.055 149.224 100.903 139.389 94.2635C129.61 87.6626 115.558 83.2696 99.5629 83.2696C83.5683 83.2696 69.5163 87.6626 59.7372 94.2635C49.9016 100.903 45.2423 109.055 45.2423 116.821C45.2423 124.586 49.9016 132.739 59.7372 139.378C69.5163 145.979 83.5683 150.372 99.5629 150.372C115.558 150.372 129.61 145.979 139.389 139.378ZM99.5629 159.958C134.858 159.958 163.47 140.645 163.47 116.821C163.47 92.9967 134.858 73.6836 99.5629 73.6836C64.2682 73.6836 35.6562 92.9967 35.6562 116.821C35.6562 140.645 64.2682 159.958 99.5629 159.958Z" fill="black"/>
<ellipse cx="78.793" cy="116.82" rx="4.793" ry="9.586" fill="black"/>
<ellipse cx="120.332" cy="116.82" rx="4.793" ry="9.586" fill="black"/>
<circle cx="125.619" cy="63.8906" r="17" stroke="black" stroke-width="4"/>
<circle cx="147.619" cy="64.8906" r="5" fill="#A07A17" stroke="black" stroke-width="4"/>
<path d="M147.508 70.4766L147.508 171.477" stroke="black" stroke-width="4"/>
</svg>
