<svg width="24" height="24" viewBox="0 0 24 24" fill="none" xmlns="http://www.w3.org/2000/svg">
<path d="M7 8.635L7.64 8L16 16.36L15.365 17L10.5 12.135V14.75C10.5 15.2141 10.3156 15.6592 9.98744 15.9874C9.65925 16.3156 9.21413 16.5 8.75 16.5C8.28587 16.5 7.84075 16.3156 7.51256 15.9874C7.18437 15.6592 7 15.2141 7 14.75C7 14.2859 7.18437 13.8408 7.51256 13.5126C7.84075 13.1844 8.28587 13 8.75 13C9.02 13 9.275 13.06 9.5 13.17V11.135L7 8.635ZM16.5 7.5V13.75C16.5 14.25 16.285 14.71 15.94 15.03L13.47 12.56C13.79 12.215 14.25 12 14.75 12C15.02 12 15.275 12.06 15.5 12.17V9.235L11.085 10.175L9.83 8.92L16.5 7.5Z" fill="white"/>
<path fill-rule="evenodd" clip-rule="evenodd" d="M12 20C16.4183 20 20 16.4183 20 12C20 7.58172 16.4183 4 12 4C7.58172 4 4 7.58172 4 12C4 16.4183 7.58172 20 12 20ZM12 21C16.9706 21 21 16.9706 21 12C21 7.02944 16.9706 3 12 3C7.02944 3 3 7.02944 3 12C3 16.9706 7.02944 21 12 21Z" fill="white"/>
</svg>
