<svg width="91" height="141" viewBox="0 0 91 141" fill="none" xmlns="http://www.w3.org/2000/svg">
<path d="M40.0137 118.486C36.7077 119.086 34.0389 118.717 32.0071 117.378C30.054 116.025 28.8417 114.05 28.3701 111.453C27.9271 109.013 28.196 106.687 29.1769 104.476C30.1435 102.187 31.5822 100.259 33.4932 98.6924C35.3898 97.0471 37.5188 96.0101 39.8802 95.5814C42.0054 95.1956 43.9338 95.2927 45.6653 95.8728L35.6764 40.8521L44.7678 39.2016L46.0325 46.1677C47.1699 47.5061 48.411 48.7443 49.7559 49.8824C51.1008 51.0204 52.4708 52.0726 53.8659 53.039C55.9405 54.6137 57.9579 56.3208 59.918 58.1603C61.8781 59.9997 63.627 62.2434 65.1648 64.8913C66.7025 67.5392 67.8357 70.8704 68.5645 74.8848C69.2362 78.5843 69.3533 82.1406 68.9159 85.5536C68.4785 88.9666 67.5332 92.2686 66.0798 95.4595L60.7666 96.4241C62.2207 90.5499 62.4833 85.0546 61.5545 79.9382C60.7399 75.4516 59.231 72.0667 57.0278 69.7835C54.8889 67.4073 52.3956 65.9899 49.5479 65.5312L54.8638 94.8126C55.6355 99.0631 55.3948 102.888 54.1417 106.286C52.9673 109.67 51.1062 112.407 48.5583 114.495C46.0104 116.584 43.1622 117.914 40.0137 118.486Z" fill="#F23EEB"/>
<path d="M34.0137 119.486C30.7077 120.086 28.0389 119.717 26.0071 118.378C24.054 117.025 22.8417 115.05 22.3701 112.453C21.9271 110.013 22.196 107.687 23.1769 105.476C24.1435 103.187 25.5822 101.259 27.4932 99.6924C29.3898 98.0471 31.5188 97.0101 33.8802 96.5814C36.0054 96.1956 37.9338 96.2927 39.6653 96.8728L29.6764 41.8521L38.7678 40.2016L40.0325 47.1677C41.1699 48.5061 42.411 49.7443 43.7559 50.8824C45.1008 52.0204 46.4708 53.0726 47.8659 54.039C49.9405 55.6137 51.9579 57.3208 53.918 59.1603C55.8781 60.9997 57.627 63.2434 59.1648 65.8913C60.7025 68.5392 61.8357 71.8704 62.5645 75.8848C63.2362 79.5843 63.3533 83.1406 62.9159 86.5536C62.4785 89.9666 61.5332 93.2686 60.0798 96.4595L54.7666 97.4241C56.2207 91.5499 56.4833 86.0546 55.5545 80.9382C54.7399 76.4516 53.231 73.0667 51.0278 70.7835C48.8889 68.4073 46.3956 66.9899 43.5479 66.5312L48.8638 95.8126C49.6355 100.063 49.3948 103.888 48.1417 107.286C46.9673 110.67 45.1062 113.407 42.5583 115.495C40.0104 117.584 37.1622 118.914 34.0137 119.486Z" fill="#3EF2E7"/>
<path d="M36.752 118.662C33.446 119.262 30.7771 118.893 28.7454 117.554C26.7923 116.201 25.58 114.226 25.1084 111.628C24.6654 109.188 24.9343 106.863 25.9152 104.652C26.8818 102.363 28.3205 100.435 30.2314 98.8682C32.1281 97.2229 34.2571 96.1859 36.6185 95.7572C38.7437 95.3714 40.6721 95.4685 42.4035 96.0485L32.4147 41.0279L41.5061 39.3774L42.7708 46.3435C43.9081 47.6819 45.1493 48.9201 46.4942 50.0582C47.8391 51.1962 49.2091 52.2484 50.6042 53.2148C52.6788 54.7895 54.6962 56.4966 56.6563 58.3361C58.6164 60.1755 60.3653 62.4192 61.903 65.0671C63.4408 67.715 64.574 71.0462 65.3028 75.0606C65.9744 78.7601 66.0916 82.3164 65.6542 85.7294C65.2168 89.1424 64.2714 92.4444 62.8181 95.6353L57.5049 96.5999C58.959 90.7257 59.2216 85.2304 58.2928 80.114C57.4782 75.6274 55.9693 72.2424 53.766 69.9593C51.6272 67.5831 49.1339 66.1657 46.2862 65.707L51.6021 94.9884C52.3738 99.2389 52.1331 103.063 50.88 106.462C49.7056 109.846 47.8445 112.583 45.2966 114.671C42.7487 116.76 39.9005 118.09 36.752 118.662Z" fill="white"/>
</svg>
